{"title":"Mother's Day 2016 HDCAM x264 AAC-Exclusive","uid":14751539,"size":1739262534,"categoryP":"video","categoryS":"movies","magnet":"?xt=urn:btih:c4c8896e5ab72e2dd992775872f8c27f1e0e4063&amp;dn=Mother%27s+Day+2016+HDCAM+x264+AAC-Exclusive&amp;tr=udp%3A%2F%2Ftracker.leechers-paradise.org%3A6969&amp;tr=udp%3A%2F%2Fzer0day.ch%3A1337&amp;tr=udp%3A%2F%2Fopen.demonii.com%3A1337&amp;tr=udp%3A%2F%2Ftracker.coppersurfer.tk%3A6969&amp;tr=udp%3A%2F%2Fexodus.desync.com%3A6969","seeders":4,"leechers":2,"uploader":"makintos13","files":2,"time":1464768668,"description":"Mother's Day 2016 HDCAM x264 AAC-Exclusive\r\n\r\nScreens:\r\n \nhttps://imgmak.com/TDF\r\n \nhttps://imgmak.com/TDi\r\n \nhttps://imgmak.com/TDj\r\n \nhttps://imgmak.com/TDw\r\n \nhttps://imgmak.com/TDJ\r\n \nhttps://imgmak.com/TDW\r\n\r\nSource: FOM\r\nSample: added\r\nEncoder: CPG\r\n\r\nNote: fix colors, bright, rgb, contrast, a bit blury though\r\n\r\nFormat                         : Matroska\r\nFile size                      : 1.61 GiB\r\nDuration                       : 1h 53mn\r\nOverall bit rate               : 2 017 Kbps\r\n\r\nVideo\r\nID                             : 1\r\nFormat                         : AVC\r\nFormat/Info                    : Advanced Video Codec\r\nFormat profile                 :   \r\nFormat settings, CABAC         : Yes\r\nFormat settings, ReFrames      : 3 frames\r\nCodec ID                       : V_MPEG4/ISO/AVC\r\nDuration                       : 1h 53mn\r\nBit rate                       : 1 900 Kbps\r\nWidth                          : 720 pixels\r\nHeight                         : 336 pixels\r\nDisplay aspect ratio           : 2.143\r\nFrame rate mode                : Constant\r\nFrame rate                     : 29.970 (30000/1001) fps\r\nColor space                    : YUV\r\nChroma subsampling             : 4:2:0\r\nBit depth                      : 8 bits\r\nScan type                      : Progressive\r\nBits/(Pixel*Frame)             : 0.262\r\nStream size                    : 1.50 GiB (93%)\r\n\r\nAudio\r\nID                             : 2\r\nFormat                         : AAC\r\nFormat/Info                    : Advanced Audio Codec\r\nFormat profile                 : LC\r\nCodec ID                       : A_AAC\r\nDuration                       : 1h 53mn\r\nBit rate                       : 128 Kbps\r\nChannel(s)                     : 2 channels\r\nChannel positions              : Front: L R\r\nSampling rate                  : 48.0 KHz\r\nFrame rate                     : 46.875 fps (1024 spf)\r\nCompression mode               : Lossy\r\nStream size                    : 105 MiB (6%)\r\nDefault                        : Yes\r\nForced                         : No","torrent":{"xt":"urn:btih:c4c8896e5ab72e2dd992775872f8c27f1e0e4063","amp;dn":"Mother%27s+Day+2016+HDCAM+x264+AAC-Exclusive","amp;tr":["udp%3A%2F%2Ftracker.leechers-paradise.org%3A6969","udp%3A%2F%2Fzer0day.ch%3A1337","udp%3A%2F%2Fopen.demonii.com%3A1337","udp%3A%2F%2Ftracker.coppersurfer.tk%3A6969","udp%3A%2F%2Fexodus.desync.com%3A6969"],"infoHash":"c4c8896e5ab72e2dd992775872f8c27f1e0e4063","infoHashBuffer":{"type":"Buffer","data":[196,200,137,110,90,183,46,45,217,146,119,88,114,248,194,127,30,14,64,99]},"announce":[],"urlList":[]}}